<svg xmlns="http://www.w3.org/2000/svg" xmlns:xlink="http://www.w3.org/1999/xlink" fill="none" version="1.1" width="16" height="16" viewBox="0 0 16 16"><defs><clipPath id="master_svg0_366_801"><rect x="0" y="0" width="16" height="16" rx="0"/></clipPath></defs><g clip-path="url(#master_svg0_366_801)"><g><path d="M8.70807140625,8.01950873046875L12.85307140625,3.89601273046875C13.04904140625,3.70101273046875,13.05004140625,3.38501273046875,12.85507140625,3.18901273046875C12.65957140625,2.99251273046875,12.34407140625,2.99201273046875,12.14807140625,3.18701273046875L8.00207140625,7.31100873046875L3.89206940625,3.18851273046875C3.6975684062500003,2.99351283046875,3.38106840625,2.99251293046875,3.18506840625,3.18751273046875C2.98956850625,3.38251273046875,2.98906850625,3.69901273046875,3.18406840625,3.89501273046875L7.29307140625,8.01650873046875L3.15006840625,12.13750873046875C2.9540684062500002,12.33250873046875,2.95306850625,12.64850873046875,3.14806840625,12.84450873046875C3.24556840625,12.94250873046875,3.37406840625,12.99200873046875,3.50256840625,12.99200873046875C3.63006840625,12.99200873046875,3.75756840625,12.94350873046875,3.85506840625,12.84650873046875L7.99907140625,8.724508730468749L12.14657140625,12.88450873046875C12.24407140625,12.98250873046875,12.37207140625,13.03150873046875,12.50057140625,13.03150873046875C12.62857140625,13.03150873046875,12.75607140625,12.98250873046875,12.85357140625,12.88550873046875C13.04904140625,12.69050873046875,13.04954140625,12.37450873046875,12.85457140625,12.17850873046875L8.70807140625,8.01950873046875Z" fill="#FFFFFF" fill-opacity="1"/></g></g></svg>